<svg width="140" height="140" viewBox="0 0 140 140" fill="none" xmlns="http://www.w3.org/2000/svg">
<rect x="31" y="43" width="64.7246" height="44.6377" stroke="url(#paint0_linear_602_7759)" stroke-width="4"/>
<rect x="43.2754" y="57.5073" width="64.7246" height="44.6377" fill="url(#paint1_linear_602_7759)"/>
<path fill-rule="evenodd" clip-rule="evenodd" d="M85.6944 87.7423L82.8852 84.917L87.8744 79.899L82.8443 74.84L85.6534 72.0146L93.4928 79.899L85.6944 87.7423ZM65.5811 87.7423L57.7826 79.899L65.6221 72.0147L68.4313 74.84L63.4011 79.899L68.3904 84.917L65.5811 87.7423ZM71.4712 87.744H75.4031L79.335 72.0146H75.4614L71.4712 87.744Z" fill="#29DB8B"/>
<circle cx="39.5" cy="51.5" r="2.5" fill="url(#paint2_linear_602_7759)"/>
<circle cx="46.5" cy="51.5" r="2.5" fill="url(#paint3_linear_602_7759)"/>
<circle cx="53.5" cy="51.5" r="2.5" fill="url(#paint4_linear_602_7759)"/>
<path d="M19 80V114H53" stroke="#868686" stroke-width="3" stroke-linecap="round" stroke-linejoin="round"/>
<path fill-rule="evenodd" clip-rule="evenodd" d="M58 119C55.2386 119 53 116.761 53 114C53 111.239 55.2386 109 58 109C60.7614 109 63 111.239 63 114C63 116.761 60.7614 119 58 119Z" stroke="#868686" stroke-width="3"/>
<path fill-rule="evenodd" clip-rule="evenodd" d="M19 80C16.2386 80 14 77.7614 14 75C14 72.2386 16.2386 70 19 70C21.7614 70 24 72.2386 24 75C24 77.7614 21.7614 80 19 80Z" stroke="#868686" stroke-width="3"/>
<path d="M121 60V26H87" stroke="#868686" stroke-width="3" stroke-linecap="round" stroke-linejoin="round"/>
<path fill-rule="evenodd" clip-rule="evenodd" d="M82 21C84.7614 21 87 23.2386 87 26C87 28.7614 84.7614 31 82 31C79.2386 31 77 28.7614 77 26C77 23.2386 79.2386 21 82 21Z" stroke="#868686" stroke-width="3"/>
<path fill-rule="evenodd" clip-rule="evenodd" d="M121 60C123.761 60 126 62.2386 126 65C126 67.7614 123.761 70 121 70C118.239 70 116 67.7614 116 65C116 62.2386 118.239 60 121 60Z" stroke="#868686" stroke-width="3"/>
<g opacity="0.1">
<rect width="10.381" height="10.381" transform="matrix(0 -1 -1 0 125.524 119.381)" fill="url(#paint5_linear_602_7759)"/>
<rect width="10.381" height="10.381" transform="matrix(0 -1 -1 0 125.524 119.381)" fill="url(#paint6_linear_602_7759)"/>
</g>
<g opacity="0.4">
<rect width="10.381" height="10.381" transform="matrix(0 -1 -1 0 112.143 119.381)" fill="url(#paint7_linear_602_7759)"/>
<rect width="10.381" height="10.381" transform="matrix(0 -1 -1 0 112.143 119.381)" fill="url(#paint8_linear_602_7759)"/>
</g>
<g opacity="0.7">
<rect width="10.381" height="10.381" transform="matrix(0 -1 -1 0 98.762 119.381)" fill="url(#paint9_linear_602_7759)"/>
<rect width="10.381" height="10.381" transform="matrix(0 -1 -1 0 98.762 119.381)" fill="url(#paint10_linear_602_7759)"/>
</g>
<rect width="10.381" height="10.381" transform="matrix(0 -1 -1 0 85.381 119.381)" fill="url(#paint11_linear_602_7759)"/>
<rect width="10.381" height="10.381" transform="matrix(0 -1 -1 0 85.381 119.381)" fill="url(#paint12_linear_602_7759)"/>
<g opacity="0.1">
<rect width="10.381" height="10.381" transform="matrix(0 1 1 0 14 21)" fill="url(#paint13_linear_602_7759)"/>
<rect width="10.381" height="10.381" transform="matrix(0 1 1 0 14 21)" fill="url(#paint14_linear_602_7759)"/>
</g>
<g opacity="0.4">
<rect width="10.381" height="10.381" transform="matrix(0 1 1 0 27.381 21)" fill="url(#paint15_linear_602_7759)"/>
<rect width="10.381" height="10.381" transform="matrix(0 1 1 0 27.381 21)" fill="url(#paint16_linear_602_7759)"/>
</g>
<g opacity="0.7">
<rect width="10.381" height="10.381" transform="matrix(0 1 1 0 40.762 21)" fill="url(#paint17_linear_602_7759)"/>
<rect width="10.381" height="10.381" transform="matrix(0 1 1 0 40.762 21)" fill="url(#paint18_linear_602_7759)"/>
</g>
<rect width="10.381" height="10.381" transform="matrix(0 1 1 0 54.1429 21)" fill="url(#paint19_linear_602_7759)"/>
<rect width="10.381" height="10.381" transform="matrix(0 1 1 0 54.1429 21)" fill="url(#paint20_linear_602_7759)"/>
<defs>
<linearGradient id="paint0_linear_602_7759" x1="63.3623" y1="43" x2="62.6995" y2="119.544" gradientUnits="userSpaceOnUse">
<stop offset="0.296071" stop-color="#22B573"/>
<stop offset="0.813444" stop-color="#22B573" stop-opacity="0"/>
</linearGradient>
<linearGradient id="paint1_linear_602_7759" x1="75.6377" y1="57.5073" x2="74.9749" y2="134.052" gradientUnits="userSpaceOnUse">
<stop offset="0.296071" stop-color="#22B573"/>
<stop offset="0.813444" stop-color="#22B573" stop-opacity="0"/>
</linearGradient>
<linearGradient id="paint2_linear_602_7759" x1="39.5" y1="49" x2="39.3924" y2="57.5733" gradientUnits="userSpaceOnUse">
<stop offset="0.296071" stop-color="#22B573"/>
<stop offset="0.813444" stop-color="#22B573" stop-opacity="0"/>
</linearGradient>
<linearGradient id="paint3_linear_602_7759" x1="46.5" y1="49" x2="46.3924" y2="57.5733" gradientUnits="userSpaceOnUse">
<stop offset="0.296071" stop-color="#22B573"/>
<stop offset="0.813444" stop-color="#22B573" stop-opacity="0"/>
</linearGradient>
<linearGradient id="paint4_linear_602_7759" x1="53.5" y1="49" x2="53.3924" y2="57.5733" gradientUnits="userSpaceOnUse">
<stop offset="0.296071" stop-color="#22B573"/>
<stop offset="0.813444" stop-color="#22B573" stop-opacity="0"/>
</linearGradient>
<linearGradient id="paint5_linear_602_7759" x1="5.19048" y1="6.66045e-09" x2="4.96699" y2="17.7997" gradientUnits="userSpaceOnUse">
<stop offset="0.296071" stop-color="#22B573"/>
<stop offset="0.813444" stop-color="#22B573" stop-opacity="0"/>
</linearGradient>
<linearGradient id="paint6_linear_602_7759" x1="5.19048" y1="6.66045e-09" x2="4.96699" y2="17.7997" gradientUnits="userSpaceOnUse">
<stop offset="0.296071" stop-color="#8B6B45"/>
<stop offset="0.813444" stop-color="#8B6B45"/>
</linearGradient>
<linearGradient id="paint7_linear_602_7759" x1="5.19048" y1="6.66045e-09" x2="4.96699" y2="17.7997" gradientUnits="userSpaceOnUse">
<stop offset="0.296071" stop-color="#22B573"/>
<stop offset="0.813444" stop-color="#22B573" stop-opacity="0"/>
</linearGradient>
<linearGradient id="paint8_linear_602_7759" x1="5.19048" y1="6.66045e-09" x2="4.96699" y2="17.7997" gradientUnits="userSpaceOnUse">
<stop offset="0.296071" stop-color="#8B6B45"/>
<stop offset="0.813444" stop-color="#8B6B45"/>
</linearGradient>
<linearGradient id="paint9_linear_602_7759" x1="5.19048" y1="6.66045e-09" x2="4.96699" y2="17.7997" gradientUnits="userSpaceOnUse">
<stop offset="0.296071" stop-color="#22B573"/>
<stop offset="0.813444" stop-color="#22B573" stop-opacity="0"/>
</linearGradient>
<linearGradient id="paint10_linear_602_7759" x1="5.19048" y1="6.66045e-09" x2="4.96699" y2="17.7997" gradientUnits="userSpaceOnUse">
<stop offset="0.296071" stop-color="#8B6B45"/>
<stop offset="0.813444" stop-color="#8B6B45"/>
</linearGradient>
<linearGradient id="paint11_linear_602_7759" x1="5.19048" y1="6.66045e-09" x2="4.96699" y2="17.7997" gradientUnits="userSpaceOnUse">
<stop offset="0.296071" stop-color="#22B573"/>
<stop offset="0.813444" stop-color="#22B573" stop-opacity="0"/>
</linearGradient>
<linearGradient id="paint12_linear_602_7759" x1="5.19048" y1="6.66045e-09" x2="4.96699" y2="17.7997" gradientUnits="userSpaceOnUse">
<stop offset="0.296071" stop-color="#8B6B45"/>
<stop offset="0.813444" stop-color="#8B6B45"/>
</linearGradient>
<linearGradient id="paint13_linear_602_7759" x1="5.19048" y1="6.66045e-09" x2="4.96699" y2="17.7997" gradientUnits="userSpaceOnUse">
<stop offset="0.296071" stop-color="#22B573"/>
<stop offset="0.813444" stop-color="#22B573" stop-opacity="0"/>
</linearGradient>
<linearGradient id="paint14_linear_602_7759" x1="5.19048" y1="6.66045e-09" x2="4.96699" y2="17.7997" gradientUnits="userSpaceOnUse">
<stop offset="0.296071" stop-color="#8B6B45"/>
<stop offset="0.813444" stop-color="#8B6B45"/>
</linearGradient>
<linearGradient id="paint15_linear_602_7759" x1="5.19048" y1="6.66045e-09" x2="4.96699" y2="17.7997" gradientUnits="userSpaceOnUse">
<stop offset="0.296071" stop-color="#22B573"/>
<stop offset="0.813444" stop-color="#22B573" stop-opacity="0"/>
</linearGradient>
<linearGradient id="paint16_linear_602_7759" x1="5.19048" y1="6.66045e-09" x2="4.96699" y2="17.7997" gradientUnits="userSpaceOnUse">
<stop offset="0.296071" stop-color="#8B6B45"/>
<stop offset="0.813444" stop-color="#8B6B45"/>
</linearGradient>
<linearGradient id="paint17_linear_602_7759" x1="5.19048" y1="6.66045e-09" x2="4.96699" y2="17.7997" gradientUnits="userSpaceOnUse">
<stop offset="0.296071" stop-color="#22B573"/>
<stop offset="0.813444" stop-color="#22B573" stop-opacity="0"/>
</linearGradient>
<linearGradient id="paint18_linear_602_7759" x1="5.19048" y1="6.66045e-09" x2="4.96699" y2="17.7997" gradientUnits="userSpaceOnUse">
<stop offset="0.296071" stop-color="#8B6B45"/>
<stop offset="0.813444" stop-color="#8B6B45"/>
</linearGradient>
<linearGradient id="paint19_linear_602_7759" x1="5.19048" y1="6.66045e-09" x2="4.96699" y2="17.7997" gradientUnits="userSpaceOnUse">
<stop offset="0.296071" stop-color="#22B573"/>
<stop offset="0.813444" stop-color="#22B573" stop-opacity="0"/>
</linearGradient>
<linearGradient id="paint20_linear_602_7759" x1="5.19048" y1="6.66045e-09" x2="4.96699" y2="17.7997" gradientUnits="userSpaceOnUse">
<stop offset="0.296071" stop-color="#8B6B45"/>
<stop offset="0.813444" stop-color="#8B6B45"/>
</linearGradient>
</defs>
</svg>
