<svg width="495" height="479" viewBox="0 0 495 479" fill="none" xmlns="http://www.w3.org/2000/svg">
<path d="M495 323.271H308.656V215.315H495V323.271ZM309.793 322.133H493.863V216.454H309.793V322.133Z" fill="#E0E0E0"/>
<path d="M456.558 272.879H333.614V276.487H456.558V272.879Z" fill="#F0F0F0"/>
<path d="M465.029 286.333H333.614V290.272H465.029V286.333Z" fill="#F0F0F0"/>
<path d="M465.029 299.947H333.614V303.886H465.029V299.947Z" fill="#F0F0F0"/>
<path d="M376.582 253.334H333.614V262.703H376.582V253.334Z" fill="#F0F0F0"/>
<path d="M494.431 215.885H309.259V233.073H494.431V215.885Z" fill="#585858"/>
<path d="M480.185 230.5C479.947 230.272 482.334 227.393 485.507 224.069C488.679 220.745 491.465 218.229 491.692 218.446C491.919 218.662 489.543 221.553 486.371 224.888C483.198 228.224 480.413 230.728 480.185 230.5Z" fill="white"/>
<path d="M491.714 230.5C491.487 230.728 488.713 228.223 485.529 224.888C482.345 221.553 479.969 218.673 480.208 218.446C480.447 218.218 483.21 220.722 486.393 224.069C489.577 227.415 491.93 230.272 491.714 230.5Z" fill="white"/>
<path d="M265.701 2.10156H80.5282V108.93H265.701V2.10156Z" fill="#DDDDDD"/>
<path d="M227.838 59.1074H104.894V62.7158H227.838V59.1074Z" fill="#FDFDFD"/>
<path d="M236.308 72.562H104.894V76.5005H236.308V72.562Z" fill="#FDFDFD"/>
<path d="M236.308 86.1758H104.894V90.1143H236.308V86.1758Z" fill="#FDFDFD"/>
<path d="M147.861 39.563H104.894V48.9311H147.861V39.563Z" fill="#FDFDFD"/>
<path d="M265.701 2.10156H80.5282V19.2898H265.701V2.10156Z" fill="#585858"/>
<path d="M250.829 16.6375C250.59 16.4213 252.978 13.53 256.15 10.2062C259.322 6.88236 262.108 4.36673 262.335 4.59439C262.563 4.82205 260.186 7.70193 257.014 11.0257C253.842 14.3496 251.056 16.8424 250.829 16.6375Z" fill="white"/>
<path d="M262.336 16.6376C262.108 16.8653 259.334 14.361 256.15 11.0258C252.967 7.6906 250.59 4.82211 250.829 4.59445C251.068 4.36679 253.831 6.87103 257.014 10.2062C260.198 13.5414 262.574 16.4213 262.336 16.6376Z" fill="white"/>
<path d="M195.57 200.552H9.26074V92.5845H195.57V200.552ZM10.3977 199.413H194.433V93.7228H10.3977V199.413Z" fill="#FDFDFD"/>
<path d="M157.139 150.159H34.1953V153.768H157.139V150.159Z" fill="#FDFDFD"/>
<path d="M165.61 163.614H34.1953V167.553H165.61V163.614Z" fill="#F0F0F0"/>
<path d="M165.61 177.228H34.1953V181.167H165.61V177.228Z" fill="#F0F0F0"/>
<path d="M77.1627 130.615H34.1953V139.983H77.1627V130.615Z" fill="#FDFDFD"/>
<path d="M195.001 93.1538H9.8291V110.342H195.001V93.1538Z" fill="#585858"/>
<path d="M202.938 163.557H31.6602V341.711H202.938V163.557Z" fill="#FDFDFD"/>
<path d="M202.938 163.557H31.6602V182.965H202.938V163.557Z" fill="#585858"/>
<path d="M45.8034 173.062C45.7723 173.766 45.5353 174.445 45.1221 175.015C44.7088 175.585 44.1374 176.021 43.4787 176.269C42.8201 176.517 42.1032 176.566 41.417 176.41C40.7309 176.254 40.1057 175.899 39.619 175.39C39.1323 174.882 38.8056 174.241 38.6794 173.548C38.5531 172.855 38.633 172.14 38.909 171.492C39.185 170.844 39.645 170.291 40.2319 169.903C40.8188 169.514 41.5068 169.306 42.2105 169.306C43.1836 169.33 44.1077 169.738 44.7809 170.442C45.4541 171.146 45.8217 172.088 45.8034 173.062Z" fill="white"/>
<path d="M60.3931 173.062C60.3641 173.769 60.128 174.452 59.7143 175.026C59.3005 175.6 58.7273 176.039 58.0661 176.289C57.4048 176.54 56.6846 176.59 55.9952 176.433C55.3058 176.277 54.6775 175.921 54.1886 175.41C53.6996 174.899 53.3717 174.255 53.2454 173.558C53.1192 172.862 53.2003 172.144 53.4786 171.493C53.757 170.843 54.2203 170.288 54.8108 169.9C55.4014 169.511 56.0932 169.304 56.8001 169.306C57.7732 169.33 58.6973 169.738 59.3706 170.442C60.0438 171.146 60.4114 172.088 60.3931 173.062Z" fill="white"/>
<path d="M74.98 173.062C74.951 173.769 74.7149 174.452 74.3012 175.026C73.8874 175.6 73.3142 176.039 72.653 176.289C71.9917 176.54 71.2715 176.59 70.5821 176.433C69.8927 176.277 69.2644 175.921 68.7755 175.41C68.2865 174.899 67.9586 174.255 67.8323 173.558C67.7061 172.862 67.7872 172.144 68.0656 171.493C68.3439 170.843 68.8072 170.288 69.3978 169.9C69.9883 169.511 70.6801 169.304 71.3871 169.306C72.3602 169.33 73.2843 169.738 73.9575 170.442C74.6307 171.146 74.9983 172.088 74.98 173.062Z" fill="white"/>
<path d="M470.543 33.6484H251.897V251.814H470.543V33.6484Z" fill="#DDDDDD"/>
<path d="M470.543 33.6484H251.897V59.2031H470.543V33.6484Z" fill="#585858"/>
<path d="M270.521 46.1693C270.481 47.0984 270.169 47.9951 269.625 48.7483C269.08 49.5015 268.326 50.0779 267.457 50.4059C266.588 50.734 265.642 50.7993 264.736 50.5936C263.83 50.388 263.004 49.9205 262.362 49.2492C261.719 48.578 261.287 47.7325 261.12 46.8177C260.953 45.903 261.058 44.9593 261.422 44.1038C261.787 43.2483 262.394 42.5188 263.168 42.0057C263.943 41.4926 264.851 41.2186 265.78 41.2178C267.064 41.2476 268.283 41.7854 269.172 42.7134C270.06 43.6414 270.546 44.8841 270.521 46.1693Z" fill="#FDFDFD"/>
<path d="M288.338 42.8231C288.969 43.5084 289.384 44.3643 289.532 45.284C289.68 46.2038 289.554 47.1467 289.17 47.9955C288.787 48.8442 288.162 49.5612 287.374 50.057C286.586 50.5528 285.67 50.8056 284.74 50.7839C283.81 50.7622 282.906 50.4669 282.143 49.9348C281.379 49.4027 280.788 48.6574 280.445 47.7916C280.101 46.9259 280.019 45.9781 280.21 45.0663C280.401 44.1544 280.855 43.3189 281.516 42.6638C282.443 41.781 283.682 41.302 284.96 41.3319C286.239 41.3618 287.454 41.898 288.338 42.8231Z" fill="#FDFDFD"/>
<path d="M308.929 46.1693C308.889 47.0984 308.577 47.9951 308.033 48.7483C307.488 49.5015 306.734 50.0779 305.865 50.4059C304.996 50.734 304.05 50.7993 303.144 50.5936C302.238 50.388 301.413 49.9205 300.77 49.2492C300.127 48.578 299.695 47.7325 299.528 46.8177C299.361 45.903 299.467 44.9593 299.831 44.1038C300.195 43.2483 300.802 42.5188 301.576 42.0057C302.351 41.4926 303.259 41.2186 304.188 41.2178C305.472 41.2476 306.691 41.7854 307.58 42.7134C308.469 43.6414 308.954 44.8841 308.929 46.1693Z" fill="#FDFDFD"/>
<path d="M20.9265 365.706C3.35984 353.424 -0.619671 330.624 0.073901 310.123C0.187601 306.708 -0.187596 303.089 1.43832 300.095C3.06423 297.101 6.86182 295.041 9.92035 296.475C12.4559 297.67 13.5588 300.63 14.98 303.077C16.8764 306.337 19.6554 308.993 22.9959 310.738C25.1676 311.876 27.8623 312.559 30.0112 311.375C32.9674 309.748 33.3085 305.684 33.2858 302.269C33.2858 295.917 33.2479 289.573 33.1721 283.237C32.9678 279.834 33.3133 276.421 34.1954 273.129C35.2528 269.896 37.6064 266.902 40.8241 265.992C44.0418 265.081 48.0554 266.959 48.7831 270.283C48.9084 271.691 48.9425 273.105 48.8854 274.517C48.9764 275.94 49.6359 277.5 50.9662 277.932C52.2965 278.365 53.6836 277.374 54.7069 276.373C58.2089 272.958 60.5966 268.507 62.8137 264.113C65.0309 259.72 67.2026 255.2 70.3862 251.455C73.5698 247.71 77.97 244.74 82.8932 244.455C87.8164 244.17 92.9443 247.198 94.1723 251.979C95.4003 256.76 92.6146 261.643 89.6243 265.525C85.1119 271.286 79.7928 276.366 73.8313 280.607C72.6676 281.243 71.7389 282.237 71.1821 283.442C70.443 285.718 72.592 287.995 74.8319 288.712C77.3674 289.554 80.1189 289.292 82.7909 289.611C85.4628 289.93 88.3053 291.091 89.3173 293.595C90.7044 297.078 87.7937 300.721 84.9398 303.111C79.2094 307.892 72.7023 311.654 65.7017 314.232C63.2003 315.143 60.5738 315.951 58.55 317.704C56.5261 319.457 55.3209 322.519 56.5375 324.921C57.7541 327.323 60.8808 328.085 63.5073 327.596C66.1338 327.107 68.4647 325.695 70.9661 324.75C75.6391 322.986 81.6653 323.305 84.6101 327.346C85.5224 328.738 86.0999 330.322 86.2972 331.975C86.4945 333.629 86.3062 335.305 85.7471 336.873C84.6091 339.994 82.8577 342.854 80.5965 345.285C73.1496 354.193 63.4738 360.961 52.558 364.898C41.7223 368.654 31.6826 369.679 20.9152 365.729" fill="#22B573"/>
<path d="M89.1689 247.267C89.1689 247.267 89.0665 247.38 88.8391 247.585L87.8272 248.485C86.9403 249.281 85.6328 250.442 83.9841 251.979C79.3098 256.324 74.9693 261.016 70.9996 266.014C68.464 269.167 65.8376 272.742 63.0405 276.623C60.2435 280.505 57.3555 284.694 54.4903 289.144C51.4356 293.838 48.6381 298.694 46.1105 303.692C44.7916 306.299 43.6319 309.019 42.438 311.796L38.9133 320.277C34.2673 330.959 30.2208 341.892 26.7929 353.025C24.0317 362.135 22.1284 371.483 21.1079 380.948C20.4466 387.335 20.3401 393.768 20.7895 400.174C20.9714 402.45 21.142 404.192 21.3012 405.376C21.3694 405.945 21.4148 406.4 21.4603 406.73V407.197C21.4114 407.049 21.3771 406.896 21.358 406.742C21.3011 406.411 21.2329 405.967 21.142 405.398C20.9373 404.26 20.7213 402.462 20.5166 400.185C19.968 393.767 20.0061 387.313 20.6303 380.902C21.5875 371.397 23.4493 362.005 26.1903 352.855C29.5894 341.69 33.6248 330.729 38.2766 320.026L41.8923 311.58C43.0861 308.814 44.2572 306.071 45.5875 303.453C48.1327 298.44 50.953 293.572 54.0355 288.871C56.9462 284.318 59.8797 280.197 62.6426 276.35C65.4055 272.503 68.0774 268.906 70.6016 265.764C74.6117 260.779 79.0105 256.12 83.7567 251.831C85.4395 250.317 86.7812 249.179 87.6908 248.416L88.7482 247.563C88.8778 247.45 89.0188 247.35 89.1689 247.267Z" fill="#263238"/>
<path d="M45.7356 303.43C45.5752 302.961 45.4647 302.477 45.4059 301.985C45.224 301.04 45.0193 299.708 44.7806 297.978C44.2916 294.563 43.7914 289.884 43.257 284.705C42.7226 279.526 42.12 274.836 41.6197 271.456C41.3582 269.771 41.1308 268.416 40.9716 267.471C40.8474 266.988 40.7825 266.491 40.7783 265.992C40.9741 266.448 41.1153 266.925 41.199 267.415C41.4491 268.348 41.7334 269.691 42.0518 271.387C42.6999 274.802 43.3365 279.446 43.8709 284.637C44.4053 289.828 44.8602 294.381 45.2126 297.921C45.3832 299.514 45.531 300.869 45.6447 301.95C45.733 302.438 45.7635 302.935 45.7356 303.43Z" fill="#263238"/>
<path d="M89.4882 295.257C88.9349 295.378 88.3715 295.446 87.8054 295.462C86.6684 295.565 85.0539 295.701 83.0528 295.929C79.0505 296.361 73.5474 297.158 67.5099 298.296C61.4724 299.435 56.0489 300.721 52.149 301.711C50.2048 302.212 48.6357 302.668 47.601 302.975C47.0486 303.171 46.4769 303.309 45.8955 303.385C46.4209 303.12 46.9688 302.903 47.5328 302.736C48.6015 302.36 50.1479 301.837 52.0808 301.279C55.958 300.141 61.3815 298.786 67.4417 297.625C72.5753 296.642 77.7553 295.92 82.9618 295.462C84.9743 295.291 86.6002 295.223 87.7372 295.2C88.3213 295.161 88.9079 295.18 89.4882 295.257Z" fill="#263238"/>
<path d="M26.7481 352.058C26.6268 351.893 26.5275 351.713 26.4525 351.523L25.702 349.94C25.0539 348.563 24.1784 346.526 23.1324 344.033C21.0176 339.024 18.3229 332.012 15.4576 324.226C12.5924 316.44 9.95452 309.429 7.95339 304.363C6.97557 301.904 6.16833 299.89 5.56571 298.387L4.92896 296.759C4.84071 296.572 4.77949 296.372 4.74707 296.167C4.86829 296.332 4.96764 296.512 5.04267 296.702L5.79309 298.285C6.42982 299.662 7.31669 301.7 8.36273 304.192C10.4776 309.201 13.1723 316.213 16.0375 323.999C18.9028 331.785 21.5406 338.797 23.5417 343.862C24.5196 346.321 25.3268 348.335 25.9181 349.838C26.1796 350.487 26.3956 350.976 26.5662 351.466C26.6544 351.654 26.7156 351.853 26.7481 352.058Z" fill="#263238"/>
<path d="M84.8268 333.31C84.6447 333.415 84.4498 333.495 84.2469 333.549L82.5642 334.118L76.3448 336.133C71.0918 337.84 63.8377 340.276 55.8787 342.963C47.9197 345.649 40.6315 348.04 35.3444 349.633C32.7065 350.441 30.5576 351.056 29.0681 351.466L27.3513 351.91C27.1516 351.973 26.9458 352.015 26.7373 352.035C26.9194 351.93 27.1143 351.85 27.3172 351.796L28.9999 351.227L35.2193 349.212C40.4723 347.505 47.7264 345.069 55.6854 342.382C63.6444 339.696 70.9212 337.305 76.2083 335.712C78.8575 334.904 80.9951 334.289 82.4959 333.879L84.2128 333.435C84.4124 333.372 84.6183 333.33 84.8268 333.31Z" fill="#263238"/>
<path d="M386.588 23.8592L380.732 25.9537L378.219 18.293C373.603 4.16676 358.89 -3.3346 345.371 1.43485C331.852 6.2043 324.655 21.6965 329.271 35.8227L331.784 43.4834L325.906 45.5893C323.664 46.4597 321.844 48.1614 320.823 50.3406C319.803 52.5199 319.66 55.0092 320.425 57.2909L336.719 107.137C337.057 108.266 337.619 109.316 338.37 110.224C339.122 111.132 340.048 111.88 341.094 112.422C342.139 112.965 343.283 113.292 344.458 113.383C345.632 113.474 346.813 113.328 347.93 112.953L408.611 91.2235C410.883 90.3546 412.729 88.6378 413.761 86.4342C414.794 84.2306 414.933 81.712 414.149 79.408L397.844 29.5621C397.497 28.4357 396.927 27.3908 396.168 26.4898C395.409 25.5888 394.476 24.8502 393.425 24.3179C392.375 23.7857 391.228 23.4708 390.053 23.3919C388.878 23.3131 387.7 23.4721 386.588 23.8592ZM340.334 31.8273C339.09 28.1543 339.313 24.1415 340.958 20.6297C342.603 17.118 345.541 14.3797 349.158 12.9885C350.943 12.3768 352.834 12.1316 354.716 12.2673C356.599 12.403 358.435 12.917 360.115 13.7786C361.795 14.6402 363.284 15.8316 364.494 17.282C365.703 18.7323 366.609 20.4117 367.156 22.2201L369.658 29.8808L342.836 39.488L340.334 31.8273ZM374.444 76.0614L378.606 88.7875C378.682 89.0427 378.658 89.3175 378.537 89.5549C378.416 89.7924 378.209 89.9741 377.958 90.0624L372.125 92.1455C371.893 92.2099 371.645 92.1819 371.433 92.0673C371.221 91.9527 371.062 91.7605 370.988 91.5308L366.792 78.8616C364.479 78.7354 362.259 77.9047 360.431 76.4807C358.602 75.0566 357.251 73.1073 356.559 70.8935C355.571 67.9669 355.751 64.7708 357.063 61.9743C358.375 59.1778 360.716 56.9978 363.598 55.8908C365.02 55.4042 366.526 55.2094 368.025 55.3178C369.525 55.4262 370.987 55.8357 372.325 56.5219C373.663 57.2081 374.849 58.1569 375.813 59.3118C376.777 60.4667 377.498 61.8041 377.935 63.2442C378.667 65.493 378.727 67.9065 378.109 70.1891C377.491 72.4718 376.222 74.5244 374.456 76.0955L374.444 76.0614Z" fill="#22B573"/>
<path d="M380.471 25.817C380.471 25.9764 369.612 30.0629 356.105 34.9234C342.597 39.7839 331.58 43.6882 331.523 43.5744C331.466 43.4606 342.381 39.34 355.9 34.4681C369.419 29.5962 380.414 25.6691 380.471 25.817Z" fill="#6B6B6B"/>
<path d="M393.364 27.9116C393.414 28.0104 393.456 28.1132 393.489 28.219C393.58 28.4466 393.682 28.7426 393.819 29.1068C394.114 29.9378 394.524 31.0875 395.035 32.5217L399.401 45.2478C401.221 50.6433 403.392 57.0406 405.803 64.1435C406.94 67.7064 408.281 71.4172 409.532 75.3216C410.202 77.3335 410.491 79.4528 410.385 81.5708C410.288 82.6723 409.975 83.7439 409.464 84.7239C408.917 85.7006 408.188 86.5625 407.315 87.2623C405.558 88.546 403.609 89.5412 401.539 90.2104L395.683 92.3163L384.598 96.2889L365.826 102.982L353.148 107.444L349.737 108.583L348.827 108.878C348.73 108.922 348.627 108.949 348.521 108.958C348.521 108.958 348.611 108.958 348.805 108.822L349.692 108.469L353.103 107.182L365.712 102.538L384.45 95.7084L395.513 91.7016L401.368 89.5844C403.379 88.9423 405.272 87.9774 406.974 86.7273C407.786 86.0779 408.465 85.2779 408.975 84.371C409.456 83.4647 409.747 82.4689 409.828 81.4456C409.932 79.4048 409.655 77.3625 409.009 75.424C407.781 71.5538 406.485 67.8088 405.314 64.246C402.949 57.1316 400.766 50.7116 399.038 45.3161C397.309 39.9206 395.854 35.5837 394.853 32.5331C394.376 31.0419 394.012 29.8809 393.716 29.0385L393.444 28.1279C393.409 28.0589 393.383 27.9864 393.364 27.9116Z" fill="#6B6B6B"/>
<path d="M361.346 12.2146C361.346 12.2146 360.743 11.9187 359.629 11.4633C358.041 10.8524 356.361 10.5137 354.66 10.4616C352.139 10.3751 349.631 10.8494 347.315 11.8504C344.499 13.0968 342.091 15.1128 340.368 17.667C338.633 20.214 337.702 23.2239 337.696 26.3067C337.72 28.8334 338.103 31.3438 338.833 33.7625C339.424 35.8342 340.038 37.4847 340.448 38.6344C340.689 39.2184 340.887 39.8195 341.039 40.4329C340.716 39.8869 340.446 39.3114 340.232 38.7141C339.765 37.5758 339.095 35.9594 338.435 33.8764C337.626 31.4323 337.185 28.881 337.128 26.3067C337.097 23.1074 338.05 19.9761 339.856 17.3369C341.64 14.6894 344.146 12.611 347.076 11.3495C349.464 10.3431 352.051 9.89911 354.637 10.0519C356.375 10.1405 358.082 10.5455 359.674 11.2471C360.1 11.4437 360.511 11.672 360.902 11.93C361.064 12.0012 361.214 12.0972 361.346 12.2146Z" fill="#6B6B6B"/>
<path d="M361.869 56.756C362.051 56.6459 362.241 56.5507 362.438 56.4714C363.007 56.2143 363.597 56.0049 364.2 55.8453C365.159 55.5622 366.147 55.394 367.145 55.3445C368.503 55.2714 369.861 55.4767 371.136 55.9478C374.047 56.9722 376.719 59.9432 378.038 63.9158C378.67 66.0477 378.67 68.3177 378.038 70.4496C377.336 72.7635 376.079 74.8701 374.376 76.585L374.445 76.2777C375.957 80.4325 377.606 84.9401 379.311 89.6413L379.413 89.9258L379.129 90.0283L376.525 90.8934L370.84 92.7943L370.556 92.8854L370.465 92.6008C368.907 87.8883 367.202 83.4945 365.917 79.1804L366.167 79.3739C363.944 79.189 361.825 78.3538 360.073 76.9721C358.488 75.7497 357.188 74.1959 356.264 72.4189C355.43 70.8431 355.015 69.0792 355.059 67.2966C355.111 65.4747 355.566 63.687 356.389 62.0615C357.213 60.436 358.385 59.0129 359.823 57.8943C360.414 57.4134 361.078 57.0293 361.79 56.756C361.148 57.1375 360.525 57.5516 359.925 57.9967C358.346 59.334 357.137 61.0546 356.412 62.9938C355.79 64.4561 355.499 66.0382 355.56 67.6264C355.621 69.2146 356.032 70.7696 356.764 72.1798C357.673 73.8893 358.941 75.3808 360.482 76.5509C362.154 77.8642 364.174 78.656 366.292 78.8275H366.486L366.542 78.9982C367.793 83.2327 369.51 87.6606 371.09 92.3959L370.715 92.2138L376.4 90.3129L378.993 89.4364L378.811 89.8234C377.117 85.1222 375.479 80.6032 373.978 76.4484V76.2777L374.115 76.1411C375.768 74.4973 377 72.4785 377.708 70.2561C378.311 68.2168 378.311 66.0462 377.708 64.0069C376.469 60.1822 373.91 57.2796 371.136 56.2551C369.908 55.781 368.597 55.5604 367.282 55.6063C366.299 55.6288 365.323 55.7625 364.371 56.0047C362.677 56.4259 361.881 56.8129 361.869 56.756Z" fill="#6B6B6B"/>
<path d="M326.724 387.281L213.149 386.757C206.59 386.721 200.313 384.08 195.698 379.415C191.082 374.749 188.505 368.44 188.532 361.874L189.738 76.834C189.751 73.5808 190.405 70.3621 191.661 67.362C192.918 64.3619 194.753 61.6391 197.061 59.3494C199.369 57.0596 202.106 55.2477 205.114 54.0173C208.122 52.7869 211.343 52.1621 214.593 52.1785L328.156 52.7022C334.715 52.7353 340.993 55.3732 345.611 60.0366C350.228 64.7 352.808 71.0075 352.784 77.5739L351.579 362.603C351.565 365.857 350.912 369.077 349.655 372.078C348.399 375.079 346.565 377.804 344.257 380.095C341.949 382.387 339.212 384.201 336.204 385.434C333.196 386.667 329.974 387.294 326.724 387.281Z" fill="#455A64"/>
<path d="M327.987 62.503H305.975C305.257 62.5164 304.548 62.6712 303.89 62.9588C303.231 63.2463 302.636 63.6609 302.137 64.1789C301.639 64.6968 301.247 65.308 300.985 65.9775C300.723 66.647 300.595 67.3616 300.608 68.0807V72.0761C300.622 72.7946 300.494 73.5087 300.231 74.1775C299.969 74.8464 299.577 75.4568 299.078 75.9739C298.58 76.4909 297.984 76.9044 297.326 77.1907C296.668 77.477 295.959 77.6305 295.242 77.6424L252.331 77.4488C250.879 77.4101 249.503 76.7962 248.503 75.7418C247.503 74.6875 246.962 73.279 246.999 71.8257V67.8303C247.035 66.3788 246.496 64.972 245.498 63.918C244.501 62.864 243.127 62.2488 241.677 62.2071H233.934L214.662 62.116C210.078 62.0887 205.67 63.8809 202.403 67.1003C199.136 70.3197 197.277 74.7039 197.232 79.2929L196.095 357.515C196.084 359.791 196.522 362.048 197.383 364.155C198.243 366.262 199.51 368.179 201.11 369.797C202.711 371.414 204.614 372.7 206.711 373.581C208.808 374.461 211.058 374.92 213.332 374.931L326.668 375.454C328.944 375.465 331.199 375.026 333.306 374.164C335.412 373.302 337.328 372.033 338.944 370.43C340.561 368.826 341.846 366.92 342.726 364.819C343.607 362.718 344.065 360.464 344.076 358.186L345.213 79.9645C345.24 75.3625 343.441 70.9381 340.211 67.6637C336.981 64.3894 332.584 62.5331 327.987 62.503Z" fill="white"/>
<path d="M312.739 338.334L228.465 337.97C227.589 337.97 226.884 337.014 226.896 335.853L226.987 313.781C226.987 312.643 227.703 311.664 228.578 311.664L312.853 312.051C313.338 312.135 313.772 312.403 314.065 312.8C314.357 313.197 314.485 313.691 314.422 314.18L314.343 336.228C314.343 337.401 313.615 338.346 312.739 338.334Z" fill="#22B573"/>
<path d="M245.274 144.29L216.03 144.157L216.006 149.529L245.249 149.662L245.274 144.29Z" fill="#22B573"/>
<path opacity="0.1" d="M245.274 144.29L216.03 144.157L216.006 149.529L245.249 149.662L245.274 144.29Z" fill="black"/>
<path d="M331 177.277C331.23 177.254 331.455 177.2 331.671 177.118C331.986 176.995 332.259 176.785 332.46 176.513C332.661 176.241 332.782 175.918 332.808 175.581C332.808 173.771 332.808 171.13 332.808 167.738C332.808 166.042 332.808 164.141 332.808 162.047C332.808 161.535 332.808 161 332.808 160.465C332.882 159.945 332.769 159.417 332.489 158.973C332.333 158.761 332.129 158.587 331.895 158.467C331.66 158.346 331.4 158.282 331.136 158.279H329.363H312.933L217.834 157.926C217.591 157.922 217.35 157.977 217.132 158.086C216.914 158.195 216.726 158.355 216.583 158.552C216.309 158.997 216.204 159.527 216.288 160.043C216.288 161.182 216.288 162.32 216.288 163.458C216.288 165.735 216.288 168.011 216.288 170.288C216.288 171.426 216.288 172.565 216.288 173.703C216.241 174.233 216.241 174.766 216.288 175.296C216.347 175.524 216.459 175.734 216.612 175.912C216.766 176.09 216.958 176.229 217.175 176.321C217.399 176.41 217.639 176.453 217.88 176.446H223.667L248.92 176.583L291.671 176.845L320.494 177.072L328.328 177.163H330.363C330.829 177.163 331.057 177.163 331.057 177.163H330.363H328.328H320.494H291.671L248.92 177.027L223.667 176.924H217.88C217.561 176.937 217.243 176.883 216.947 176.765C216.648 176.637 216.382 176.442 216.169 176.196C215.956 175.949 215.802 175.657 215.719 175.342C215.653 175.043 215.63 174.737 215.651 174.431V173.589C215.651 172.451 215.651 171.312 215.651 170.174C215.651 167.898 215.651 165.621 215.651 163.344C215.651 162.206 215.651 161.068 215.651 159.93C215.629 159.626 215.629 159.322 215.651 159.019C215.694 158.684 215.823 158.366 216.026 158.097C216.222 157.822 216.482 157.599 216.783 157.446C217.084 157.294 217.417 157.216 217.754 157.22L312.853 157.744L329.283 157.858H331.057C331.369 157.858 331.677 157.934 331.954 158.078C332.231 158.223 332.47 158.432 332.649 158.689C332.969 159.184 333.099 159.779 333.013 160.362C333.013 160.897 333.013 161.432 333.013 161.944C333.013 164.016 333.013 165.917 333.013 167.636C333.013 171.051 332.933 173.669 332.91 175.49C332.882 175.84 332.755 176.175 332.544 176.455C332.332 176.736 332.045 176.95 331.716 177.072C331.501 177.206 331.253 177.277 331 177.277Z" fill="#E0E0E0"/>
<path d="M278.298 163.64H224.813V168.66H278.298V163.64Z" fill="#22B573"/>
<path opacity="0.2" d="M278.298 163.64H224.813V168.66H278.298V163.64Z" fill="white"/>
<path d="M245.074 193.303L215.831 193.17L215.807 198.543L245.05 198.675L245.074 193.303Z" fill="#22B573"/>
<path opacity="0.1" d="M245.074 193.303L215.831 193.17L215.807 198.543L245.05 198.675L245.074 193.303Z" fill="black"/>
<path d="M330.259 226.292C330.489 226.264 330.717 226.222 330.942 226.167C331.259 226.065 331.551 225.897 331.799 225.673C332.046 225.45 332.242 225.175 332.374 224.869C332.553 224.409 332.623 223.915 332.579 223.423C332.579 222.877 332.579 222.285 332.579 221.625C332.579 220.304 332.579 218.802 332.579 217.072V209.844C332.633 209.32 332.518 208.793 332.249 208.341C331.969 207.877 331.528 207.533 331.01 207.373C330.444 207.272 329.867 207.242 329.293 207.282H312.932L218.162 206.929C217.653 206.931 217.161 207.117 216.778 207.454C216.395 207.791 216.148 208.256 216.082 208.762C216.082 209.844 216.082 211.039 216.082 212.177C216.082 214.454 216.082 216.73 216.082 219.007C216.082 220.145 216.082 221.283 216.082 222.422C216.039 222.954 216.062 223.489 216.15 224.015C216.292 224.477 216.584 224.878 216.98 225.154C217.4 225.42 217.893 225.548 218.39 225.518H219.97H223.256L248.418 225.643L291.022 225.905L319.742 226.133L327.553 226.224H329.589H330.271H329.589H327.553H319.742H291.022L248.395 226.178L223.233 226.087H218.287C217.672 226.123 217.062 225.96 216.548 225.62C216.03 225.261 215.653 224.735 215.479 224.129C215.377 223.551 215.347 222.962 215.388 222.376C215.388 221.238 215.388 220.1 215.388 218.961C215.388 216.685 215.388 214.408 215.388 212.131C215.388 210.993 215.388 209.855 215.388 208.717C215.471 208.066 215.788 207.467 216.28 207.034C216.772 206.6 217.405 206.361 218.06 206.36L312.829 206.884L329.191 207.009C329.8 206.972 330.412 207.014 331.01 207.134C331.601 207.328 332.099 207.733 332.408 208.273C332.703 208.774 332.83 209.356 332.772 209.935C332.772 210.47 332.772 210.993 332.772 211.517C332.772 213.577 332.772 215.467 332.772 217.208C332.772 218.95 332.772 220.418 332.772 221.761C332.772 222.41 332.772 223.014 332.772 223.571C332.814 224.08 332.732 224.592 332.534 225.063C332.386 225.377 332.172 225.655 331.908 225.879C331.643 226.103 331.333 226.267 330.999 226.36C330.75 226.381 330.5 226.358 330.259 226.292Z" fill="#E0E0E0"/>
<path d="M244.855 244.445L215.611 244.312L215.587 249.685L244.83 249.818L244.855 244.445Z" fill="#22B573"/>
<path opacity="0.1" d="M244.855 244.445L215.611 244.312L215.587 249.685L244.83 249.818L244.855 244.445Z" fill="black"/>
<path d="M330.033 277.412C330.263 277.385 330.491 277.344 330.715 277.287C331.032 277.187 331.323 277.02 331.57 276.798C331.817 276.577 332.014 276.305 332.148 276.001C332.326 275.541 332.396 275.047 332.353 274.555C332.353 273.998 332.353 273.417 332.353 272.746C332.353 271.436 332.353 269.923 332.353 268.192V260.964C332.407 260.441 332.291 259.914 332.023 259.462C331.736 259.006 331.297 258.667 330.784 258.505C330.218 258.4 329.641 258.366 329.067 258.403H312.705L217.936 258.05C217.426 258.051 216.934 258.238 216.552 258.575C216.169 258.912 215.921 259.377 215.855 259.883C215.855 261.021 215.855 262.159 215.855 263.298C215.855 265.574 215.855 267.851 215.855 270.127C215.855 271.266 215.855 272.404 215.855 273.542C215.813 274.071 215.836 274.602 215.923 275.125C216.06 275.589 216.353 275.991 216.754 276.263C217.171 276.536 217.666 276.664 218.163 276.627H223.109L248.271 276.764L290.875 277.025L319.595 277.253L327.407 277.344H329.442C329.897 277.344 330.124 277.344 330.124 277.344C330.124 277.344 329.897 277.344 329.442 277.344H327.407H319.595H290.875L248.271 277.219L223.109 277.117H218.163C217.548 277.158 216.936 276.994 216.424 276.65C215.906 276.291 215.529 275.764 215.355 275.159C215.253 274.58 215.223 273.992 215.264 273.406C215.264 272.267 215.264 271.129 215.264 269.991C215.264 267.714 215.264 265.438 215.264 263.161C215.264 262.023 215.264 260.884 215.264 259.689C215.344 259.039 215.659 258.441 216.149 258.007C216.639 257.573 217.27 257.334 217.925 257.333L312.694 257.857L329.055 257.982C329.665 257.944 330.276 257.986 330.875 258.107C331.465 258.3 331.964 258.706 332.273 259.245C332.567 259.747 332.695 260.329 332.637 260.907C332.637 261.442 332.637 261.977 332.637 262.489C332.637 264.55 332.637 266.439 332.637 268.181C332.637 269.923 332.637 271.391 332.637 272.734C332.637 273.383 332.637 273.986 332.637 274.544C332.681 275.053 332.599 275.565 332.398 276.035C332.251 276.349 332.037 276.628 331.772 276.852C331.507 277.076 331.197 277.24 330.863 277.333C330.597 277.424 330.312 277.451 330.033 277.412Z" fill="#E0E0E0"/>
<path d="M277.158 214.075L223.674 213.832L223.651 218.851L277.135 219.094L277.158 214.075Z" fill="#22B573"/>
<path opacity="0.2" d="M277.158 214.075L223.674 213.832L223.651 218.851L277.135 219.094L277.158 214.075Z" fill="white"/>
<path d="M228.51 268.124C228.477 268.582 228.31 269.02 228.03 269.384C227.75 269.748 227.369 270.021 226.936 270.17C226.502 270.32 226.034 270.338 225.59 270.224C225.146 270.109 224.745 269.867 224.438 269.526C224.13 269.186 223.929 268.762 223.859 268.309C223.79 267.855 223.855 267.391 224.046 266.973C224.238 266.556 224.547 266.205 224.937 265.962C225.326 265.719 225.778 265.597 226.236 265.609C226.87 265.644 227.464 265.928 227.889 266.399C228.315 266.87 228.538 267.49 228.51 268.124Z" fill="#22B573"/>
<path d="M235.753 268.159C235.775 268.479 235.732 268.802 235.624 269.105C235.517 269.408 235.348 269.686 235.129 269.921C234.91 270.156 234.645 270.344 234.35 270.472C234.056 270.601 233.738 270.667 233.416 270.667C233.095 270.667 232.777 270.601 232.483 270.472C232.188 270.344 231.923 270.156 231.704 269.921C231.484 269.686 231.316 269.408 231.209 269.105C231.101 268.802 231.058 268.479 231.08 268.159C231.058 267.838 231.101 267.516 231.209 267.212C231.316 266.909 231.484 266.631 231.704 266.396C231.923 266.161 232.188 265.973 232.483 265.845C232.777 265.717 233.095 265.65 233.416 265.65C233.738 265.65 234.056 265.717 234.35 265.845C234.645 265.973 234.91 266.161 235.129 266.396C235.348 266.631 235.517 266.909 235.624 267.212C235.732 267.516 235.775 267.838 235.753 268.159Z" fill="#22B573"/>
<path d="M243.007 268.193C242.974 268.651 242.807 269.089 242.527 269.452C242.247 269.816 241.867 270.089 241.433 270.239C240.999 270.388 240.531 270.406 240.087 270.292C239.643 270.177 239.242 269.935 238.935 269.595C238.627 269.254 238.426 268.831 238.356 268.377C238.287 267.923 238.352 267.459 238.543 267.042C238.735 266.625 239.044 266.273 239.434 266.03C239.823 265.788 240.275 265.665 240.733 265.677C241.366 265.715 241.958 266 242.383 266.47C242.808 266.941 243.032 267.559 243.007 268.193Z" fill="#22B573"/>
<path d="M250.249 268.227C250.216 268.685 250.049 269.123 249.769 269.486C249.489 269.85 249.109 270.124 248.675 270.273C248.241 270.422 247.774 270.441 247.329 270.326C246.885 270.212 246.485 269.969 246.177 269.629C245.869 269.288 245.668 268.865 245.598 268.411C245.529 267.957 245.594 267.493 245.785 267.076C245.977 266.659 246.286 266.307 246.676 266.065C247.065 265.822 247.517 265.699 247.975 265.711C248.608 265.749 249.2 266.034 249.625 266.505C250.05 266.975 250.274 267.593 250.249 268.227Z" fill="#22B573"/>
<path d="M257.491 268.249C257.46 268.708 257.295 269.147 257.016 269.512C256.738 269.878 256.358 270.153 255.924 270.304C255.491 270.455 255.022 270.475 254.577 270.362C254.132 270.248 253.73 270.006 253.422 269.666C253.113 269.326 252.911 268.903 252.84 268.449C252.77 267.994 252.834 267.53 253.026 267.112C253.217 266.694 253.527 266.342 253.916 266.099C254.306 265.856 254.759 265.733 255.217 265.745C255.848 265.783 256.438 266.066 256.863 266.534C257.288 267.002 257.513 267.617 257.491 268.249Z" fill="#22B573"/>
<path d="M264.746 268.284C264.715 268.74 264.552 269.177 264.276 269.541C264 269.905 263.623 270.181 263.193 270.334C262.763 270.487 262.297 270.511 261.853 270.402C261.41 270.293 261.007 270.057 260.696 269.723C260.385 269.388 260.178 268.97 260.101 268.519C260.024 268.068 260.08 267.605 260.263 267.186C260.446 266.767 260.747 266.411 261.129 266.161C261.512 265.911 261.959 265.778 262.416 265.779C263.056 265.803 263.661 266.08 264.098 266.549C264.535 267.019 264.768 267.642 264.746 268.284Z" fill="#22B573"/>
<path d="M271.989 268.318C272.012 268.639 271.968 268.961 271.861 269.264C271.753 269.567 271.585 269.845 271.366 270.08C271.147 270.316 270.881 270.503 270.587 270.631C270.292 270.76 269.974 270.826 269.653 270.826C269.331 270.826 269.014 270.76 268.719 270.631C268.424 270.503 268.159 270.316 267.94 270.08C267.721 269.845 267.552 269.567 267.445 269.264C267.338 268.961 267.294 268.639 267.316 268.318C267.294 267.997 267.338 267.675 267.445 267.371C267.552 267.068 267.721 266.79 267.94 266.555C268.159 266.32 268.424 266.132 268.719 266.004C269.014 265.876 269.331 265.81 269.653 265.81C269.974 265.81 270.292 265.876 270.587 266.004C270.881 266.132 271.147 266.32 271.366 266.555C271.585 266.79 271.753 267.068 271.861 267.371C271.968 267.675 272.012 267.997 271.989 268.318Z" fill="#22B573"/>
<path d="M279.232 268.352C279.201 268.808 279.037 269.245 278.761 269.61C278.485 269.974 278.109 270.249 277.678 270.402C277.248 270.555 276.782 270.579 276.339 270.47C275.895 270.362 275.493 270.126 275.181 269.791C274.87 269.457 274.663 269.038 274.586 268.588C274.509 268.137 274.566 267.673 274.748 267.254C274.931 266.835 275.232 266.479 275.615 266.229C275.997 265.979 276.444 265.847 276.901 265.848C277.541 265.871 278.146 266.148 278.583 266.618C279.02 267.087 279.253 267.711 279.232 268.352Z" fill="#22B573"/>
<path d="M286.474 268.386C286.443 268.844 286.277 269.284 285.999 269.649C285.72 270.014 285.34 270.289 284.907 270.44C284.473 270.591 284.005 270.612 283.56 270.498C283.115 270.385 282.713 270.143 282.404 269.803C282.095 269.463 281.893 269.04 281.823 268.585C281.752 268.131 281.817 267.666 282.008 267.248C282.199 266.831 282.509 266.478 282.899 266.235C283.289 265.992 283.741 265.869 284.2 265.882C284.83 265.92 285.421 266.203 285.846 266.671C286.27 267.139 286.496 267.754 286.474 268.386Z" fill="#22B573"/>
<g opacity="0.2">
<path d="M228.51 268.124C228.477 268.582 228.31 269.02 228.03 269.384C227.75 269.748 227.369 270.021 226.936 270.17C226.502 270.32 226.034 270.338 225.59 270.224C225.146 270.109 224.745 269.867 224.438 269.526C224.13 269.186 223.929 268.762 223.859 268.309C223.79 267.855 223.855 267.391 224.046 266.973C224.238 266.556 224.547 266.205 224.937 265.962C225.326 265.719 225.778 265.597 226.236 265.609C226.87 265.644 227.464 265.928 227.889 266.399C228.315 266.87 228.538 267.49 228.51 268.124Z" fill="white"/>
<path d="M235.754 268.159C235.776 268.479 235.733 268.802 235.625 269.105C235.518 269.408 235.349 269.686 235.13 269.921C234.911 270.156 234.646 270.344 234.351 270.472C234.057 270.601 233.739 270.667 233.417 270.667C233.096 270.667 232.778 270.601 232.484 270.472C232.189 270.344 231.924 270.156 231.705 269.921C231.485 269.686 231.317 269.408 231.21 269.105C231.102 268.802 231.059 268.479 231.081 268.159C231.059 267.838 231.102 267.516 231.21 267.212C231.317 266.909 231.485 266.631 231.705 266.396C231.924 266.161 232.189 265.973 232.484 265.845C232.778 265.717 233.096 265.65 233.417 265.65C233.739 265.65 234.057 265.717 234.351 265.845C234.646 265.973 234.911 266.161 235.13 266.396C235.349 266.631 235.518 266.909 235.625 267.212C235.733 267.516 235.776 267.838 235.754 268.159Z" fill="white"/>
<path d="M243.007 268.193C242.974 268.651 242.807 269.089 242.527 269.452C242.247 269.816 241.866 270.089 241.433 270.239C240.999 270.388 240.531 270.406 240.087 270.292C239.643 270.177 239.242 269.935 238.935 269.595C238.627 269.254 238.426 268.831 238.356 268.377C238.287 267.923 238.351 267.459 238.543 267.042C238.735 266.625 239.044 266.273 239.434 266.03C239.823 265.788 240.275 265.665 240.733 265.677C241.366 265.715 241.958 266 242.383 266.47C242.808 266.941 243.032 267.559 243.007 268.193Z" fill="white"/>
<path d="M250.249 268.227C250.216 268.685 250.049 269.123 249.769 269.486C249.489 269.85 249.109 270.124 248.675 270.273C248.241 270.422 247.773 270.441 247.329 270.326C246.885 270.212 246.484 269.969 246.177 269.629C245.869 269.288 245.668 268.865 245.598 268.411C245.529 267.957 245.594 267.493 245.785 267.076C245.977 266.659 246.286 266.307 246.676 266.065C247.065 265.822 247.517 265.699 247.975 265.711C248.608 265.749 249.2 266.034 249.625 266.505C250.05 266.975 250.274 267.593 250.249 268.227Z" fill="white"/>
<path d="M257.492 268.249C257.461 268.708 257.296 269.147 257.017 269.512C256.738 269.878 256.359 270.153 255.925 270.304C255.491 270.455 255.023 270.475 254.578 270.362C254.133 270.248 253.731 270.006 253.422 269.666C253.114 269.326 252.911 268.903 252.841 268.449C252.771 267.994 252.835 267.53 253.026 267.112C253.218 266.694 253.528 266.342 253.917 266.099C254.307 265.856 254.759 265.733 255.218 265.745C255.849 265.783 256.439 266.066 256.864 266.534C257.289 267.002 257.514 267.617 257.492 268.249Z" fill="white"/>
<path d="M264.746 268.284C264.715 268.74 264.552 269.177 264.276 269.541C264 269.905 263.623 270.181 263.193 270.334C262.763 270.487 262.297 270.511 261.853 270.402C261.41 270.293 261.007 270.057 260.696 269.723C260.385 269.388 260.178 268.97 260.101 268.519C260.024 268.068 260.08 267.605 260.263 267.186C260.446 266.767 260.747 266.411 261.129 266.161C261.512 265.911 261.959 265.778 262.416 265.779C263.056 265.803 263.661 266.08 264.098 266.549C264.535 267.019 264.768 267.642 264.746 268.284Z" fill="white"/>
<path d="M271.989 268.318C272.012 268.639 271.968 268.961 271.861 269.264C271.753 269.567 271.585 269.845 271.366 270.08C271.147 270.316 270.881 270.503 270.587 270.631C270.292 270.76 269.974 270.826 269.653 270.826C269.331 270.826 269.014 270.76 268.719 270.631C268.424 270.503 268.159 270.316 267.94 270.08C267.721 269.845 267.552 269.567 267.445 269.264C267.338 268.961 267.294 268.639 267.316 268.318C267.294 267.997 267.338 267.675 267.445 267.371C267.552 267.068 267.721 266.79 267.94 266.555C268.159 266.32 268.424 266.132 268.719 266.004C269.014 265.876 269.331 265.81 269.653 265.81C269.974 265.81 270.292 265.876 270.587 266.004C270.881 266.132 271.147 266.32 271.366 266.555C271.585 266.79 271.753 267.068 271.861 267.371C271.968 267.675 272.012 267.997 271.989 268.318Z" fill="white"/>
<path d="M279.233 268.352C279.202 268.808 279.038 269.245 278.762 269.61C278.486 269.974 278.11 270.249 277.679 270.402C277.249 270.555 276.783 270.579 276.34 270.47C275.896 270.362 275.494 270.126 275.182 269.791C274.871 269.457 274.664 269.038 274.587 268.588C274.51 268.137 274.567 267.673 274.749 267.254C274.932 266.835 275.233 266.479 275.616 266.229C275.998 265.979 276.445 265.847 276.902 265.848C277.542 265.871 278.147 266.148 278.584 266.618C279.021 267.087 279.254 267.711 279.233 268.352Z" fill="white"/>
<path d="M286.474 268.386C286.443 268.845 286.277 269.284 285.999 269.649C285.72 270.015 285.34 270.29 284.907 270.441C284.473 270.592 284.005 270.612 283.56 270.499C283.115 270.385 282.713 270.144 282.404 269.804C282.095 269.463 281.893 269.04 281.823 268.586C281.752 268.132 281.817 267.667 282.008 267.249C282.199 266.831 282.509 266.479 282.899 266.236C283.289 265.993 283.741 265.87 284.2 265.882C284.83 265.92 285.421 266.204 285.846 266.671C286.27 267.139 286.496 267.755 286.474 268.386Z" fill="white"/>
</g>
<path d="M276.184 104.062C276.974 103.714 277.644 103.141 278.111 102.414C278.578 101.688 278.821 100.84 278.811 99.9757C278.84 99.4141 278.755 98.8523 278.561 98.3247C278.366 97.7971 278.067 97.3146 277.68 96.9066C277.293 96.4986 276.828 96.1738 276.311 95.9517C275.795 95.7297 275.239 95.6152 274.678 95.6152C274.116 95.6152 273.56 95.7297 273.044 95.9517C272.528 96.1738 272.062 96.4986 271.675 96.9066C271.289 97.3146 270.989 97.7971 270.795 98.3247C270.6 98.8523 270.515 99.4141 270.545 99.9757C270.527 100.848 270.769 101.707 271.238 102.442C271.708 103.177 272.384 103.757 273.183 104.108C266.815 105.064 267.1 111.985 267.1 111.985L282.153 112.053C282.153 112.053 282.506 105.007 276.184 104.062Z" fill="#22B573"/>
<path opacity="0.1" d="M276.184 104.062C276.974 103.714 277.644 103.141 278.111 102.414C278.578 101.688 278.821 100.84 278.811 99.9757C278.84 99.4141 278.755 98.8523 278.561 98.3247C278.366 97.7971 278.067 97.3146 277.68 96.9066C277.293 96.4986 276.828 96.1738 276.311 95.9517C275.795 95.7297 275.239 95.6152 274.678 95.6152C274.116 95.6152 273.56 95.7297 273.044 95.9517C272.528 96.1738 272.062 96.4986 271.675 96.9066C271.289 97.3146 270.989 97.7971 270.795 98.3247C270.6 98.8523 270.515 99.4141 270.545 99.9757C270.527 100.848 270.769 101.707 271.238 102.442C271.708 103.177 272.384 103.757 273.183 104.108C266.815 105.064 267.1 111.985 267.1 111.985L282.153 112.053C282.153 112.053 282.506 105.007 276.184 104.062Z" fill="black"/>
<path d="M300.647 116.517L246.992 116.273L246.963 122.693L300.618 122.937L300.647 116.517Z" fill="#22B573"/>
<path opacity="0.2" d="M300.647 116.517L246.992 116.273L246.963 122.693L300.618 122.937L300.647 116.517Z" fill="white"/>
<path d="M103.393 155.35H102.859L101.312 155.464C100.476 155.514 99.6434 155.625 98.8223 155.794C98.2905 155.869 97.763 155.971 97.2419 156.101L95.4796 156.591C92.4799 157.512 89.6498 158.915 87.0998 160.746C83.7308 163.194 80.9175 166.328 78.8452 169.943C77.6272 172.027 76.6578 174.246 75.9572 176.557C75.221 179.067 74.7971 181.659 74.6951 184.274C74.6274 185.648 74.6502 187.024 74.7633 188.395C74.7633 189.089 74.9566 189.784 75.0476 190.489C75.1241 191.201 75.2572 191.905 75.4455 192.595C76.468 197.163 78.5425 201.428 81.5036 205.051C84.4648 208.673 88.2305 211.553 92.5006 213.46C95.5911 214.795 98.9036 215.54 102.267 215.657C105.742 215.848 109.22 215.349 112.5 214.189L113.501 213.813H113.637L113.751 213.881L128.089 221.166L127.668 221.531C126.133 216.773 124.655 212.162 123.222 207.734V207.564L123.348 207.439C126.826 203.931 129.408 199.636 130.874 194.917C132.203 190.603 132.591 186.054 132.011 181.576C131.496 177.598 130.218 173.756 128.248 170.262C126.55 167.261 124.359 164.567 121.767 162.294C119.629 160.495 117.262 158.987 114.729 157.809C112.812 156.981 110.816 156.352 108.771 155.931L106.497 155.555L104.848 155.43L103.848 155.362H103.507C103.62 155.349 103.735 155.349 103.848 155.362H104.86L106.508 155.43L108.782 155.76C110.853 156.15 112.876 156.757 114.82 157.57C117.397 158.734 119.806 160.238 121.983 162.043C124.622 164.306 126.86 167 128.6 170.011C130.627 173.543 131.944 177.437 132.478 181.474C133.105 186.02 132.744 190.649 131.42 195.042C129.944 199.86 127.322 204.246 123.78 207.826L123.848 207.53C125.28 211.958 126.77 216.568 128.316 221.314L128.532 222.009L127.884 221.679L113.547 214.405H113.797L112.773 214.78C109.429 215.959 105.887 216.469 102.347 216.283C98.9107 216.152 95.5289 215.38 92.3755 214.006C86.3604 211.427 81.3559 206.945 78.1289 201.246C76.6439 198.614 75.5593 195.775 74.9112 192.823C74.7337 192.115 74.6007 191.396 74.5132 190.671C74.4222 189.954 74.2744 189.249 74.2403 188.543C73.9326 184.493 74.3602 180.42 75.5024 176.522C76.2205 174.181 77.2168 171.933 78.47 169.829C80.5918 166.182 83.4636 163.027 86.8952 160.575C89.4871 158.74 92.3648 157.348 95.4113 156.454L97.1964 155.999C97.7218 155.877 98.2531 155.782 98.7882 155.714C99.6178 155.561 100.458 155.469 101.301 155.441L102.859 155.384C103.036 155.36 103.214 155.349 103.393 155.35Z" fill="#22B573"/>
<path d="M91.5238 178.126L102.495 173.551C102.838 173.437 103.181 173.379 103.523 173.379C103.923 173.379 104.266 173.437 104.609 173.551L115.58 178.126C116.609 178.583 117.237 179.555 117.237 180.642C117.237 192.021 110.723 199.855 104.609 202.428C103.923 202.714 103.181 202.714 102.495 202.428C97.5808 200.37 89.8096 193.336 89.8096 180.642C89.8096 179.555 90.4953 178.583 91.5238 178.126ZM103.523 199.855C109.123 197.568 114.494 190.363 114.494 180.642L103.523 176.067L92.5524 180.642C92.5524 190.592 98.2093 197.625 103.523 199.855Z" fill="#22B573"/>
<path d="M91.7886 178.126L102.76 173.551C103.102 173.437 103.445 173.379 103.788 173.379C104.188 173.379 104.531 173.437 104.874 173.551L115.845 178.126C116.873 178.583 117.502 179.555 117.502 180.642C117.502 192.021 110.988 199.855 104.874 202.428C104.188 202.714 103.445 202.714 102.76 202.428C97.8455 200.37 90.0744 193.336 90.0744 180.642C90.0744 179.555 90.7601 178.583 91.7886 178.126ZM103.788 199.855C109.388 197.568 114.759 190.363 114.759 180.642L103.788 176.067L92.8171 180.642C92.8171 190.592 98.4741 197.625 103.788 199.855Z" fill="#22B573"/>
<path d="M111.694 182.472C111.237 189.105 107.98 194.08 103.523 196.767" stroke="#22B573" stroke-opacity="0.5"/>
<path d="M158.745 473.685V463.953L141.315 463.828L141.167 478.546L142.247 478.625C147.057 478.933 166.715 479.388 169.945 478.386C173.537 477.271 158.745 473.685 158.745 473.685Z" fill="#22B573"/>
<path d="M170.353 477.475C170.353 477.634 163.826 477.771 155.788 477.771C147.749 477.771 141.223 477.634 141.223 477.475C141.223 477.316 147.749 477.18 155.788 477.18C163.826 477.18 170.353 477.316 170.353 477.475Z" fill="#263238"/>
<path d="M159.052 475.677C158.904 475.597 159.052 475.085 159.405 474.539C159.757 473.992 160.235 473.765 160.348 473.879C160.462 473.992 160.223 474.425 159.882 474.892C159.541 475.358 159.2 475.757 159.052 475.677Z" fill="#263238"/>
<path d="M160.166 476.315C160.006 476.315 160.086 475.677 160.427 475.074C160.768 474.471 161.223 474.106 161.348 474.197C161.473 474.289 161.269 474.801 160.95 475.336C160.632 475.871 160.313 476.372 160.166 476.315Z" fill="#263238"/>
<path d="M146.476 477.43C146.408 477.43 146.146 477.225 145.771 476.792C145.313 476.236 144.803 475.726 144.248 475.267C143.702 474.83 143.051 474.544 142.36 474.436C141.826 474.368 141.485 474.436 141.451 474.368C141.417 474.3 141.746 474.06 142.372 474.015C143.197 473.997 144.002 474.272 144.646 474.789C145.249 475.281 145.757 475.879 146.146 476.553C146.408 477.054 146.544 477.384 146.476 477.43Z" fill="#263238"/>
<path d="M159.11 473.844C159.189 473.981 158.894 474.322 158.393 474.504C157.893 474.686 157.45 474.618 157.427 474.504C157.404 474.39 157.757 474.151 158.189 473.992C158.621 473.833 159.019 473.708 159.11 473.844Z" fill="#263238"/>
<path d="M158.835 472.899C158.835 473.07 158.381 473.206 157.789 473.218C157.198 473.229 156.732 473.092 156.743 472.933C156.755 472.774 157.221 472.626 157.789 472.615C158.358 472.604 158.813 472.74 158.835 472.899Z" fill="#263238"/>
<path d="M201.664 473.685V463.953L184.234 463.828L184.086 478.398L185.166 478.477C189.976 478.785 209.646 479.388 212.863 478.386C216.456 477.271 201.664 473.685 201.664 473.685Z" fill="#22B573"/>
<path d="M213.274 477.498C213.274 477.657 206.759 477.794 198.709 477.794C190.659 477.794 184.155 477.657 184.155 477.498C184.155 477.339 190.67 477.203 198.709 477.203C206.748 477.203 213.274 477.339 213.274 477.498Z" fill="#263238"/>
<path d="M201.973 475.677C201.837 475.597 201.973 475.085 202.325 474.539C202.678 473.992 203.155 473.765 203.269 473.879C203.383 473.992 203.144 474.425 202.803 474.892C202.462 475.358 202.121 475.757 201.973 475.677Z" fill="#263238"/>
<path d="M203.086 476.315C202.938 476.315 203.006 475.677 203.359 475.074C203.711 474.471 204.155 474.106 204.28 474.197C204.405 474.289 204.189 474.801 203.871 475.336C203.552 475.871 203.245 476.372 203.086 476.315Z" fill="#263238"/>
<path d="M189.397 477.43C189.329 477.43 189.079 477.225 188.692 476.793C188.234 476.237 187.724 475.726 187.169 475.268C186.622 474.831 185.972 474.544 185.281 474.437C184.758 474.368 184.406 474.437 184.372 474.368C184.337 474.3 184.667 474.061 185.293 474.015C186.118 473.998 186.923 474.272 187.567 474.789C188.173 475.278 188.682 475.877 189.067 476.554C189.329 477.055 189.465 477.385 189.397 477.43Z" fill="#263238"/>
<path d="M202.029 473.845C202.108 473.981 201.812 474.322 201.312 474.504C200.812 474.686 200.369 474.618 200.346 474.504C200.323 474.391 200.675 474.152 201.108 473.993C201.54 473.834 201.938 473.709 202.029 473.845Z" fill="#263238"/>
<path d="M201.779 472.9C201.779 473.07 201.324 473.207 200.733 473.218C200.142 473.229 199.687 473.093 199.698 472.934C199.71 472.775 200.165 472.627 200.733 472.615C201.302 472.604 201.779 472.74 201.779 472.9Z" fill="#263238"/>
<path d="M265.884 184.672C265.429 184.206 264.304 184.433 264.304 184.433C264.417 183.778 264.417 183.108 264.304 182.453C264.099 181.815 262.667 181.94 262.667 181.94C262.601 181.404 262.601 180.861 262.667 180.324C262.678 180.205 262.652 180.085 262.593 179.982C262.534 179.878 262.445 179.795 262.337 179.744C261.659 179.467 260.931 179.335 260.199 179.356C259.324 178.73 262.871 173.756 264.19 172.162C265.509 170.569 265.27 169.328 264.099 169.328C263.292 169.328 259.153 174.109 257.88 175.714C256.606 177.319 253.229 181.781 253.116 178.218C253.002 174.655 251.569 171.969 250.671 171.514C249.773 171.058 248.818 172.128 249.307 173.119C249.736 174.244 250.004 175.424 250.103 176.625C250.226 177.581 250.184 178.551 249.978 179.493C249.601 181.246 249.087 182.966 248.443 184.638H248.352C248.352 184.638 223.542 208.463 221.746 210.159C220.143 211.684 187.897 208.349 181.428 207.666C179.229 207.344 177.009 207.192 174.788 207.211C171.979 207.336 171.479 207.734 168.682 207.768C161.618 207.847 154.571 208.467 147.602 209.624C144.446 210.161 141.499 211.555 139.081 213.655C136.662 215.755 134.867 218.479 133.89 221.53C127.375 241.906 112.616 290.135 110.012 317.227C108.045 320.799 106.269 324.473 104.691 328.234C102.861 333.22 103.304 333.39 103.918 333.504C105.578 333.812 107.466 324.865 108.171 327.027C108.876 329.19 104.589 337.693 106.329 337.944C108.603 338.262 110.41 328.837 110.626 328.086C110.843 327.335 111.968 327.574 111.763 328.279C111.434 329.281 108.239 339.901 110.467 340.243C111.695 340.425 111.832 338.183 111.832 338.183C111.832 338.183 114.106 328.018 115.14 328.223C116.175 328.427 115.072 334.426 114.549 336.43C114.026 338.433 114.754 339.446 115.823 338.957C116.55 338.615 118.29 332.525 118.767 330.545C119.245 328.564 120.439 323.077 122.042 326.253C123.645 329.429 126.078 331.273 127.079 331.319C127.304 331.293 127.517 331.2 127.689 331.052C127.861 330.904 127.985 330.708 128.045 330.488C128.105 330.269 128.098 330.037 128.025 329.822C127.952 329.607 127.817 329.419 127.636 329.281C126.775 328.44 126.037 327.482 125.442 326.435C124.911 325.62 124.527 324.719 124.305 323.772C123.846 321.884 123.58 319.954 123.509 318.012L123.327 316.874C125.874 304.25 133.207 267.199 143.793 243.533L148.136 252.48L150.024 259.105L138.449 287.711L187.818 287.062L180.45 258.673L189.398 229.077C199.074 229.293 223.917 229.658 228.056 227.779C233.264 225.503 260.199 191.445 260.199 191.445C261.955 190.079 263.636 188.62 265.236 187.074C265.236 187.074 266.873 185.697 265.884 184.672Z" fill="#FFBE9D"/>
<path d="M136.279 266.573C137.711 261.678 145.068 237.478 145.068 237.478C145.068 237.478 148.683 257.204 147.728 259.584C146.85 261.62 145.812 263.584 144.624 265.457C136.279 278.172 137.37 284.535 137.37 284.535L187.796 282.998C187.91 275.941 183.737 259.527 182.873 256.909C182.009 254.29 184.885 245.719 184.885 245.719C184.885 245.719 190.57 239.925 190.366 236.943C190.258 234.264 189.927 231.599 189.377 228.975L220.076 230.113L219.109 209.282L175.016 204.866C173.481 209.203 159.598 207.074 159.598 207.074C144.613 207.575 143.68 210.33 137.45 215.179C131.219 220.028 120.906 261.644 120.906 261.644L136.279 266.573Z" fill="#22B573"/>
<path d="M166.089 261.644C165.215 261.8 164.325 261.846 163.44 261.78C161.791 261.78 159.529 261.667 157.039 261.416C154.549 261.166 152.297 260.813 150.694 260.494C149.81 260.38 148.944 260.159 148.113 259.834C149.002 259.834 149.889 259.918 150.763 260.084C152.377 260.289 154.617 260.574 157.096 260.824C159.574 261.075 161.826 261.245 163.451 261.359C164.338 261.371 165.221 261.466 166.089 261.644Z" fill="#263238"/>
<path d="M169.545 257.353C168.671 257.781 167.747 258.099 166.794 258.297C162.257 259.491 157.577 260.046 152.888 259.948C151.918 259.979 150.947 259.888 150 259.675C150.958 259.554 151.923 259.504 152.888 259.527C154.673 259.47 157.129 259.345 159.835 259.026C162.541 258.707 164.952 258.252 166.657 257.888C167.604 257.634 168.57 257.455 169.545 257.353Z" fill="#263238"/>
<path d="M186.509 238.207C186.486 239.074 186.367 239.937 186.156 240.779C185.861 242.361 185.406 244.524 184.826 246.892C184.246 249.259 183.689 251.445 183.189 252.925C182.987 253.772 182.69 254.593 182.302 255.372C182.365 254.507 182.525 253.652 182.779 252.822C183.211 251.046 183.7 248.998 184.246 246.755C184.792 244.513 185.315 242.464 185.747 240.688C185.901 239.833 186.157 239 186.509 238.207Z" fill="#263238"/>
<path d="M136.811 263.67C134.181 263.263 131.585 262.658 129.046 261.86C126.451 261.253 123.905 260.454 121.428 259.47C124.057 259.883 126.652 260.488 129.193 261.28C131.789 261.885 134.335 262.684 136.811 263.67Z" fill="#263238"/>
<path d="M189.92 228.725C189.491 228.799 189.053 228.799 188.624 228.725C187.437 228.603 186.27 228.323 185.156 227.894C183.296 227.194 181.603 226.113 180.185 224.719C178.768 223.325 177.657 221.65 176.924 219.8C176.115 217.766 175.769 215.577 175.912 213.392C175.963 211.59 176.502 209.835 177.47 208.315C178.151 207.291 179.169 206.538 180.347 206.186C180.661 206.1 180.987 206.057 181.313 206.061C181.541 206.061 181.654 206.061 181.654 206.061C181.654 206.061 181.177 206.061 180.415 206.369C179.335 206.768 178.418 207.517 177.811 208.497C176.265 210.933 175.833 215.384 177.482 219.539C178.249 221.498 179.45 223.257 180.995 224.684C182.261 225.851 183.719 226.791 185.304 227.461C186.792 228.05 188.34 228.474 189.92 228.725Z" fill="#263238"/>
<path d="M216.424 229.703C216.14 226.213 216.048 222.709 216.151 219.208C216.062 215.711 216.168 212.211 216.47 208.725C216.754 212.211 216.845 215.711 216.742 219.208C216.838 222.71 216.732 226.214 216.424 229.703Z" fill="#263238"/>
<path d="M174.719 206.141C174.844 203.602 175.106 200.734 175.106 200.734C175.106 200.734 181.382 200.039 181.757 193.551C182.133 187.063 181.757 172.094 181.757 172.094L170.387 166.266L157.767 176.203L159.711 208.645L171.286 209.385C172.17 209.409 173.029 209.081 173.672 208.473C174.316 207.865 174.693 207.026 174.719 206.141Z" fill="#FFBE9D"/>
<path d="M175.844 188.418C175.844 188.418 175.844 188.543 175.742 188.691C175.658 188.798 175.548 188.883 175.423 188.939C175.299 188.994 175.162 189.019 175.026 189.01C174.298 189.01 173.593 188.167 173.343 187.188C173.224 186.714 173.224 186.217 173.343 185.743C173.366 185.536 173.441 185.338 173.56 185.167C173.679 184.996 173.839 184.857 174.025 184.764C174.178 184.7 174.35 184.7 174.503 184.764C174.616 184.82 174.708 184.912 174.764 185.026C174.844 185.219 174.764 185.344 174.764 185.333C174.764 185.322 174.764 185.219 174.651 185.105C174.591 185.024 174.504 184.967 174.405 184.946C174.307 184.925 174.204 184.941 174.116 184.991C173.977 185.076 173.861 185.194 173.779 185.335C173.698 185.477 173.653 185.636 173.65 185.8C173.554 186.223 173.554 186.662 173.65 187.086C173.877 187.974 174.491 188.691 175.037 188.759C175.144 188.774 175.253 188.766 175.356 188.737C175.46 188.707 175.556 188.657 175.64 188.588C175.776 188.497 175.822 188.406 175.844 188.418Z" fill="#EB996E"/>
<path d="M185.658 168.588C184.783 165.606 181.61 164.126 178.722 163.307C174.322 162.054 169.57 161.508 165.272 163.09C160.974 164.672 155.812 167.45 155.812 172.197C153.276 171.992 151.821 174.211 150.82 176.966C150.181 178.644 149.797 180.41 149.683 182.202C149.365 188.417 147.625 197 143.6 201.553C141.326 204.092 138.177 205.845 136.881 209.009C135.744 211.752 136.335 215.008 135.278 217.785C134.334 220.233 132.253 221.974 130.729 224.103C129.177 226.518 128.264 229.288 128.075 232.153C127.886 235.018 128.428 237.885 129.649 240.483C130.88 243.014 132.612 245.269 134.741 247.108C136.87 248.948 139.35 250.334 142.031 251.183C147.342 252.8 153.006 252.856 158.347 251.342C162.356 250.383 166.096 248.526 169.285 245.913C172.549 243.244 174.79 239.528 175.63 235.395C176.437 230.75 175.141 226.027 174.174 221.405C171.15 206.801 172.014 206.038 175.834 192.481C175.925 192.242 175.971 191.992 176.039 191.753C176.107 191.513 176.141 191.4 176.187 191.218C176.295 190.682 176.353 190.137 176.357 189.59C175.799 189.797 175.194 189.841 174.612 189.716C174.03 189.591 173.495 189.303 173.071 188.884C172.647 188.438 172.351 187.885 172.214 187.283C172.078 186.682 172.107 186.055 172.298 185.469C172.567 184.828 172.966 184.251 173.472 183.774C173.977 183.298 174.577 182.933 175.232 182.703C176.494 182.179 177.847 181.906 179.086 181.326C181.713 180.074 183.532 177.478 184.771 174.758C185.79 172.872 186.105 170.685 185.658 168.588Z" fill="#263238"/>
<path d="M176.298 188.725C176.538 189.08 176.737 189.462 176.889 189.863C177.23 190.581 177.685 191.594 178.185 192.766L178.276 192.982H178.037L176.9 193.085C176.116 193.085 175.456 193.233 174.683 193.221C174.616 193.206 174.554 193.174 174.502 193.128C174.45 193.083 174.411 193.025 174.388 192.96C174.354 192.856 174.354 192.744 174.388 192.641C174.414 192.487 174.448 192.335 174.49 192.186L174.695 191.377C174.798 190.838 174.958 190.312 175.172 189.806C175.151 190.356 175.071 190.902 174.933 191.434L174.774 192.242C174.717 192.516 174.615 192.937 174.774 192.903C175.343 192.903 176.15 192.777 176.9 192.732L178.037 192.629L177.89 192.88C177.401 191.742 176.991 190.672 176.753 189.932C176.543 189.554 176.39 189.147 176.298 188.725Z" fill="#22B573"/>
<path d="M137.368 284.535L187.794 282.998L209.739 368.757L205.702 467.128H179.04L182.303 370.852L162.803 311.148L165.805 470.942L138.858 471.34L136.027 321.142C135.902 316.965 134.537 307.551 135.049 303.408L137.368 284.535Z" fill="#263238"/>
<path d="M169.512 312.366C168.687 312.418 167.858 312.368 167.045 312.218C165.521 312.036 163.441 311.717 161.155 311.262C158.87 310.807 156.823 310.283 155.345 309.862C154.555 309.688 153.791 309.412 153.071 309.042C153.071 308.871 156.778 309.759 161.326 310.681C165.874 311.603 169.535 312.195 169.512 312.366Z" fill="#455A64"/>
<path d="M205.428 461.733C205.428 461.892 199.391 462.029 191.944 462.029C184.496 462.029 178.447 461.892 178.447 461.733C178.447 461.574 184.485 461.438 191.944 461.438C199.402 461.438 205.428 461.563 205.428 461.733Z" fill="#455A64"/>
<path d="M165.566 466.787C165.566 466.957 159.699 467.082 152.468 467.082C145.236 467.082 139.381 466.957 139.381 466.787C139.381 466.616 145.248 466.491 152.468 466.491C159.688 466.491 165.566 466.628 165.566 466.787Z" fill="#455A64"/>
<path d="M162.086 466.377C161.927 466.377 161.222 431.466 160.506 388.404C159.79 345.342 159.369 310.408 159.517 310.408C159.665 310.408 160.392 345.308 161.097 388.393C161.802 431.477 162.257 466.377 162.086 466.377Z" fill="#455A64"/>
<path d="M201.847 461.733C201.834 461.578 201.834 461.422 201.847 461.267V459.901C201.847 458.671 201.938 456.907 202.006 454.665C202.165 450.111 202.392 443.498 202.677 435.393C203.291 419.093 204.155 396.623 205.099 371.82C205.099 371.58 205.099 371.353 205.099 371.148V371.228C199.129 347.323 193.728 325.628 189.806 309.93L185.258 291.365C184.735 289.191 184.337 287.495 184.053 286.311C183.916 285.753 183.825 285.321 183.746 284.99C183.701 284.842 183.675 284.69 183.666 284.535C183.725 284.679 183.771 284.827 183.802 284.979C183.893 285.298 184.007 285.73 184.166 286.277C184.473 287.415 184.917 289.145 185.485 291.308C186.622 295.702 188.225 302.031 190.227 309.828C194.183 325.514 199.641 347.153 205.69 371.091V371.171C205.69 371.376 205.69 371.615 205.69 371.842C204.678 396.646 203.757 419.104 203.086 435.405C202.734 443.521 202.438 450.089 202.233 454.665C202.12 456.941 202.029 458.671 201.972 459.901C201.972 460.481 201.904 460.937 201.892 461.267C201.894 461.423 201.879 461.58 201.847 461.733Z" fill="#455A64"/>
<path d="M193.148 369.145C191.233 369.775 189.26 370.213 187.258 370.454C184.803 370.875 182.71 371.171 181.767 371.216V370.989C182.074 371.08 182.233 371.137 182.233 371.182C182.233 371.228 182.04 371.182 181.721 371.182H181.039L181.721 370.977C182.608 370.715 184.7 370.283 187.156 369.839C189.126 369.411 191.133 369.178 193.148 369.145Z" fill="#455A64"/>
<path d="M192.683 372.411C190.909 372.493 189.132 372.413 187.373 372.172C185.597 372.136 183.828 371.941 182.086 371.592C185.639 371.301 189.216 371.578 192.683 372.411Z" fill="#455A64"/>
<path opacity="0.2" d="M137.153 286.345C137.751 287.112 138.503 287.745 139.361 288.202C140.219 288.659 141.164 288.93 142.133 288.997C144.164 289.238 146.219 289.199 148.239 288.883C161.258 287.437 175.05 286.106 187.795 282.998C171.298 283.92 153.867 283.613 137.369 284.535L137.199 285.946" fill="black"/>
<g opacity="0.2">
<path d="M154.151 309.623L163.452 345.752L162.804 311.148L154.151 309.623Z" fill="black"/>
</g>
</svg>
